<?xml version="1.0" standalone="no"?>
<!DOCTYPE svg PUBLIC "-//W3C//DTD SVG 20010904//EN"
 "http://www.w3.org/TR/2001/REC-SVG-20010904/DTD/svg10.dtd">
<svg version="1.0" xmlns="http://www.w3.org/2000/svg"
 width="256.000000pt" height="256.000000pt" viewBox="0 0 256.000000 256.000000"
 preserveAspectRatio="xMidYMid meet">
<metadata>
Created by potrace 1.14, written by Peter Selinger 2001-2017
</metadata>
<g transform="translate(0.000000,256.000000) scale(0.100000,-0.100000)"
fill="#000000" stroke="none">
<path d="M743 2494 c-35 -18 -49 -46 -58 -119 -4 -27 -8 -63 -10 -80 -2 -16
-7 -52 -10 -80 -4 -27 -8 -61 -10 -74 -3 -14 -7 -50 -10 -80 -3 -31 -7 -65 -9
-76 -4 -22 15 -65 36 -82 27 -22 76 -22 110 0 33 23 44 50 53 132 3 28 7 59 9
70 3 11 5 22 5 24 1 2 18 -18 38 -45 284 -380 690 -677 1116 -818 98 -33 197
-59 264 -71 219 -37 274 -27 289 52 13 69 -26 108 -116 118 -506 52 -998 336
-1364 787 -25 31 -46 59 -46 62 0 3 24 -6 54 -19 130 -58 199 -39 210 56 7 57
-28 80 -244 162 -107 40 -204 77 -215 82 -37 15 -60 15 -92 -1z"/>
<path d="M4 2101 c-2 -2 -4 -443 -4 -979 0 -1078 -3 -1023 64 -1060 29 -16
121 -17 1244 -18 l1212 -1 1 111 c1 114 0 138 -7 145 -3 3 -510 5 -1127 5
l-1122 1 -2 894 c-1 491 -5 896 -8 899 -7 7 -244 9 -251 3z"/>
<path d="M528 1391 c-1 -3 -2 -207 -3 -453 l-1 -448 148 0 148 0 0 453 0 453
-145 1 c-80 0 -146 -3 -147 -6z"/>
<path d="M1051 815 l0 -325 149 0 149 0 -2 323 -2 322 -147 2 -146 2 -1 -324z"/>
<path d="M1581 731 l0 -240 82 -3 c45 -2 112 -2 148 0 l66 3 0 239 0 240 -148
0 -147 0 -1 -239z"/>
<path d="M2120 722 c-6 -2 -10 -51 -10 -118 l0 -114 148 0 148 0 0 115 c0 72
-4 115 -11 116 -33 3 -267 3 -275 1z"/>
</g>
</svg>
